<svg width="101" height="100" viewBox="0 0 101 100" fill="none" xmlns="http://www.w3.org/2000/svg">
<g clip-path="url(#clip0_1330_44437)">
<g opacity="0.1">
<path d="M2.77273 95.4545C1.51754 95.4545 0.5 96.4721 0.5 97.7273C0.5 98.9825 1.51754 100 2.77273 100C4.02792 100 5.04545 98.9825 5.04545 97.7273C5.04545 96.4721 4.02792 95.4545 2.77273 95.4545Z" fill="#E6F6EC"/>
<path d="M57.3176 95.4545C56.0625 95.4545 55.0449 96.4721 55.0449 97.7273C55.0449 98.9825 56.0625 100 57.3176 100C58.5728 100 59.5904 98.9825 59.5904 97.7273C59.5904 96.4721 58.5728 95.4545 57.3176 95.4545Z" fill="#9BDBB3"/>
<path d="M30.0457 95.4545C28.7905 95.4545 27.7729 96.4721 27.7729 97.7273C27.7729 98.9825 28.7905 100 30.0457 100C31.3009 100 32.3184 98.9825 32.3184 97.7273C32.3184 96.4721 31.3009 95.4545 30.0457 95.4545Z" fill="#C3E9D0"/>
<path d="M84.5906 95.4546C83.3354 95.4546 82.3179 96.4721 82.3179 97.7273C82.3179 98.9825 83.3354 100 84.5906 100C85.8458 100 86.8633 98.9825 86.8633 97.7273C86.8633 96.4721 85.8458 95.4546 84.5906 95.4546Z" fill="#70CD94"/>
<path d="M16.409 95.4545C15.1538 95.4545 14.1362 96.4721 14.1362 97.7273C14.1362 98.9825 15.1538 100 16.409 100C17.6641 100 18.6817 98.9825 18.6817 97.7273C18.6817 96.4721 17.6641 95.4545 16.409 95.4545Z" fill="#E6F6EC"/>
<path d="M70.9549 95.4546C69.6997 95.4546 68.6821 96.4721 68.6821 97.7273C68.6821 98.9825 69.6997 100 70.9549 100C72.21 100 73.2276 98.9825 73.2276 97.7273C73.2276 96.4721 72.21 95.4546 70.9549 95.4546Z" fill="#9BDBB3"/>
<path d="M43.6819 95.4545C42.4267 95.4545 41.4092 96.4721 41.4092 97.7273C41.4092 98.9825 42.4267 100 43.6819 100C44.9371 100 45.9546 98.9825 45.9546 97.7273C45.9546 96.4721 44.9371 95.4545 43.6819 95.4545Z" fill="#C3E9D0"/>
<path d="M98.2278 95.4546C96.9726 95.4546 95.9551 96.4721 95.9551 97.7273C95.9551 98.9825 96.9726 100 98.2278 100C99.483 100 100.501 98.9825 100.501 97.7273C100.501 96.4721 99.483 95.4546 98.2278 95.4546Z" fill="#70CD94"/>
<path d="M2.77273 54.5456C1.51754 54.5456 0.5 55.5631 0.5 56.8183C0.5 58.0735 1.51754 59.0911 2.77273 59.0911C4.02792 59.0911 5.04545 58.0735 5.04545 56.8183C5.04545 55.5631 4.02792 54.5456 2.77273 54.5456Z" fill="#C3E9D0"/>
<path d="M57.3176 54.5456C56.0625 54.5456 55.0449 55.5631 55.0449 56.8183C55.0449 58.0735 56.0625 59.0911 57.3176 59.0911C58.5728 59.0911 59.5904 58.0735 59.5904 56.8183C59.5904 55.5631 58.5728 54.5456 57.3176 54.5456Z" fill="#9BDBB3"/>
<path d="M30.0457 54.5456C28.7905 54.5456 27.7729 55.5631 27.7729 56.8183C27.7729 58.0735 28.7905 59.0911 30.0457 59.0911C31.3009 59.0911 32.3184 58.0735 32.3184 56.8183C32.3184 55.5631 31.3009 54.5456 30.0457 54.5456Z" fill="#C3E9D0"/>
<path d="M84.5906 54.5456C83.3354 54.5456 82.3179 55.5632 82.3179 56.8183C82.3179 58.0735 83.3354 59.0911 84.5906 59.0911C85.8458 59.0911 86.8633 58.0735 86.8633 56.8183C86.8633 55.5632 85.8458 54.5456 84.5906 54.5456Z" fill="#70CD94"/>
<path d="M16.409 54.5456C15.1538 54.5456 14.1362 55.5631 14.1362 56.8183C14.1362 58.0735 15.1538 59.0911 16.409 59.0911C17.6641 59.0911 18.6817 58.0735 18.6817 56.8183C18.6817 55.5631 17.6641 54.5456 16.409 54.5456Z" fill="#C3E9D0"/>
<path d="M70.9549 54.5456C69.6997 54.5456 68.6821 55.5631 68.6821 56.8183C68.6821 58.0735 69.6997 59.0911 70.9549 59.0911C72.21 59.0911 73.2276 58.0735 73.2276 56.8183C73.2276 55.5631 72.21 54.5456 70.9549 54.5456Z" fill="#9BDBB3"/>
<path d="M43.6819 54.5456C42.4267 54.5456 41.4092 55.5631 41.4092 56.8183C41.4092 58.0735 42.4267 59.0911 43.6819 59.0911C44.9371 59.0911 45.9546 58.0735 45.9546 56.8183C45.9546 55.5631 44.9371 54.5456 43.6819 54.5456Z" fill="#C3E9D0"/>
<path d="M98.2278 54.5456C96.9726 54.5456 95.9551 55.5632 95.9551 56.8183C95.9551 58.0735 96.9726 59.0911 98.2278 59.0911C99.483 59.0911 100.501 58.0735 100.501 56.8183C100.501 55.5632 99.483 54.5456 98.2278 54.5456Z" fill="#70CD94"/>
<path d="M2.77273 81.8183C1.51754 81.8183 0.5 82.8359 0.5 84.091C0.5 85.3462 1.51754 86.3638 2.77273 86.3638C4.02792 86.3638 5.04545 85.3462 5.04545 84.091C5.04545 82.8359 4.02792 81.8183 2.77273 81.8183Z" fill="#E6F6EC"/>
<path d="M57.3176 81.8183C56.0625 81.8183 55.0449 82.8359 55.0449 84.091C55.0449 85.3462 56.0625 86.3638 57.3176 86.3638C58.5728 86.3638 59.5904 85.3462 59.5904 84.091C59.5904 82.8359 58.5728 81.8183 57.3176 81.8183Z" fill="#9BDBB3"/>
<path d="M30.0457 81.8183C28.7905 81.8183 27.7729 82.8359 27.7729 84.091C27.7729 85.3462 28.7905 86.3638 30.0457 86.3638C31.3009 86.3638 32.3184 85.3462 32.3184 84.091C32.3184 82.8359 31.3009 81.8183 30.0457 81.8183Z" fill="#C3E9D0"/>
<path d="M84.5906 81.8183C83.3354 81.8183 82.3179 82.8359 82.3179 84.091C82.3179 85.3462 83.3354 86.3638 84.5906 86.3638C85.8458 86.3638 86.8633 85.3462 86.8633 84.091C86.8633 82.8359 85.8458 81.8183 84.5906 81.8183Z" fill="#70CD94"/>
<path d="M16.409 81.8183C15.1538 81.8183 14.1362 82.8359 14.1362 84.091C14.1362 85.3462 15.1538 86.3638 16.409 86.3638C17.6641 86.3638 18.6817 85.3462 18.6817 84.091C18.6817 82.8359 17.6641 81.8183 16.409 81.8183Z" fill="#E6F6EC"/>
<path d="M70.9549 81.8183C69.6997 81.8183 68.6821 82.8359 68.6821 84.091C68.6821 85.3462 69.6997 86.3638 70.9549 86.3638C72.21 86.3638 73.2276 85.3462 73.2276 84.091C73.2276 82.8359 72.21 81.8183 70.9549 81.8183Z" fill="#9BDBB3"/>
<path d="M43.6819 81.8183C42.4267 81.8183 41.4092 82.8359 41.4092 84.091C41.4092 85.3462 42.4267 86.3638 43.6819 86.3638C44.9371 86.3638 45.9546 85.3462 45.9546 84.091C45.9546 82.8359 44.9371 81.8183 43.6819 81.8183Z" fill="#C3E9D0"/>
<path d="M98.2278 81.8183C96.9726 81.8183 95.9551 82.8359 95.9551 84.091C95.9551 85.3462 96.9726 86.3638 98.2278 86.3638C99.483 86.3638 100.501 85.3462 100.501 84.091C100.501 82.8359 99.483 81.8183 98.2278 81.8183Z" fill="#70CD94"/>
<path d="M2.77272 40.9091C1.51753 40.9091 0.5 41.9267 0.5 43.1819C0.5 44.4371 1.51753 45.4546 2.77272 45.4546C4.02792 45.4546 5.04545 44.4371 5.04545 43.1819C5.04545 41.9267 4.02792 40.9091 2.77272 40.9091Z" fill="#9BDBB3"/>
<path d="M57.3176 40.9091C56.0625 40.9091 55.0449 41.9267 55.0449 43.1819C55.0449 44.4371 56.0625 45.4546 57.3176 45.4546C58.5728 45.4546 59.5904 44.4371 59.5904 43.1819C59.5904 41.9267 58.5728 40.9091 57.3176 40.9091Z" fill="#9BDBB3"/>
<path d="M30.0457 40.9091C28.7905 40.9091 27.7729 41.9267 27.7729 43.1819C27.7729 44.4371 28.7905 45.4546 30.0457 45.4546C31.3009 45.4546 32.3184 44.4371 32.3184 43.1819C32.3184 41.9267 31.3009 40.9091 30.0457 40.9091Z" fill="#9BDBB3"/>
<path d="M84.5906 40.9091C83.3354 40.9091 82.3179 41.9267 82.3179 43.1819C82.3179 44.4371 83.3354 45.4546 84.5906 45.4546C85.8458 45.4546 86.8633 44.4371 86.8633 43.1819C86.8633 41.9267 85.8458 40.9091 84.5906 40.9091Z" fill="#70CD94"/>
<path d="M16.409 40.9091C15.1538 40.9091 14.1362 41.9267 14.1362 43.1819C14.1362 44.4371 15.1538 45.4546 16.409 45.4546C17.6641 45.4546 18.6817 44.4371 18.6817 43.1819C18.6817 41.9267 17.6641 40.9091 16.409 40.9091Z" fill="#9BDBB3"/>
<path d="M70.9549 40.9091C69.6997 40.9091 68.6821 41.9267 68.6821 43.1819C68.6821 44.4371 69.6997 45.4546 70.9549 45.4546C72.21 45.4546 73.2276 44.4371 73.2276 43.1819C73.2276 41.9267 72.21 40.9091 70.9549 40.9091Z" fill="#9BDBB3"/>
<path d="M43.6819 40.9091C42.4267 40.9091 41.4092 41.9267 41.4092 43.1819C41.4092 44.4371 42.4267 45.4546 43.6819 45.4546C44.9371 45.4546 45.9546 44.4371 45.9546 43.1819C45.9546 41.9267 44.9371 40.9091 43.6819 40.9091Z" fill="#9BDBB3"/>
<path d="M98.2278 40.9091C96.9726 40.9091 95.9551 41.9267 95.9551 43.1819C95.9551 44.4371 96.9726 45.4546 98.2278 45.4546C99.483 45.4546 100.501 44.4371 100.501 43.1819C100.501 41.9267 99.483 40.9091 98.2278 40.9091Z" fill="#70CD94"/>
<path d="M2.77272 13.6362C1.51753 13.6362 0.5 14.6537 0.5 15.9089C0.5 17.1641 1.51753 18.1816 2.77272 18.1816C4.02792 18.1816 5.04545 17.1641 5.04545 15.9089C5.04545 14.6537 4.02792 13.6362 2.77272 13.6362Z" fill="#70CD94"/>
<path d="M57.3176 13.6362C56.0625 13.6362 55.0449 14.6537 55.0449 15.9089C55.0449 17.1641 56.0625 18.1816 57.3176 18.1816C58.5728 18.1816 59.5904 17.1641 59.5904 15.9089C59.5904 14.6537 58.5728 13.6362 57.3176 13.6362Z" fill="#70CD94"/>
<path d="M30.0457 13.6362C28.7905 13.6362 27.7729 14.6537 27.7729 15.9089C27.7729 17.1641 28.7905 18.1816 30.0457 18.1816C31.3009 18.1816 32.3184 17.1641 32.3184 15.9089C32.3184 14.6537 31.3009 13.6362 30.0457 13.6362Z" fill="#70CD94"/>
<path d="M84.5906 13.6362C83.3354 13.6362 82.3179 14.6537 82.3179 15.9089C82.3179 17.1641 83.3354 18.1816 84.5906 18.1816C85.8458 18.1816 86.8633 17.1641 86.8633 15.9089C86.8633 14.6537 85.8458 13.6362 84.5906 13.6362Z" fill="#70CD94"/>
<path d="M16.409 13.6362C15.1538 13.6362 14.1362 14.6537 14.1362 15.9089C14.1362 17.1641 15.1538 18.1816 16.409 18.1816C17.6641 18.1816 18.6817 17.1641 18.6817 15.9089C18.6817 14.6537 17.6641 13.6362 16.409 13.6362Z" fill="#70CD94"/>
<path d="M70.9549 13.6362C69.6997 13.6362 68.6821 14.6537 68.6821 15.9089C68.6821 17.1641 69.6997 18.1816 70.9549 18.1816C72.21 18.1816 73.2276 17.1641 73.2276 15.9089C73.2276 14.6537 72.21 13.6362 70.9549 13.6362Z" fill="#70CD94"/>
<path d="M43.6819 13.6362C42.4267 13.6362 41.4092 14.6537 41.4092 15.9089C41.4092 17.1641 42.4267 18.1816 43.6819 18.1816C44.9371 18.1816 45.9546 17.1641 45.9546 15.9089C45.9546 14.6537 44.9371 13.6362 43.6819 13.6362Z" fill="#70CD94"/>
<path d="M98.2278 13.6362C96.9726 13.6362 95.9551 14.6537 95.9551 15.9089C95.9551 17.1641 96.9726 18.1816 98.2278 18.1816C99.483 18.1816 100.501 17.1641 100.501 15.9089C100.501 14.6537 99.483 13.6362 98.2278 13.6362Z" fill="#70CD94"/>
<path d="M2.77272 68.1818C1.51753 68.1818 0.5 69.1994 0.5 70.4546C0.5 71.7098 1.51753 72.7273 2.77272 72.7273C4.02791 72.7273 5.04545 71.7098 5.04545 70.4546C5.04545 69.1994 4.02791 68.1818 2.77272 68.1818Z" fill="#C3E9D0"/>
<path d="M57.3176 68.1818C56.0625 68.1818 55.0449 69.1994 55.0449 70.4546C55.0449 71.7098 56.0625 72.7273 57.3176 72.7273C58.5728 72.7273 59.5904 71.7098 59.5904 70.4546C59.5904 69.1994 58.5728 68.1818 57.3176 68.1818Z" fill="#9BDBB3"/>
<path d="M30.0457 68.1818C28.7905 68.1818 27.7729 69.1994 27.7729 70.4546C27.7729 71.7098 28.7905 72.7273 30.0457 72.7273C31.3009 72.7273 32.3184 71.7098 32.3184 70.4546C32.3184 69.1994 31.3009 68.1818 30.0457 68.1818Z" fill="#C3E9D0"/>
<path d="M84.5906 68.1818C83.3354 68.1818 82.3179 69.1994 82.3179 70.4546C82.3179 71.7098 83.3354 72.7273 84.5906 72.7273C85.8458 72.7273 86.8633 71.7098 86.8633 70.4546C86.8633 69.1994 85.8458 68.1818 84.5906 68.1818Z" fill="#70CD94"/>
<path d="M16.409 68.1818C15.1538 68.1818 14.1362 69.1994 14.1362 70.4546C14.1362 71.7098 15.1538 72.7273 16.409 72.7273C17.6641 72.7273 18.6817 71.7098 18.6817 70.4546C18.6817 69.1994 17.6641 68.1818 16.409 68.1818Z" fill="#C3E9D0"/>
<path d="M70.9548 68.1818C69.6997 68.1818 68.6821 69.1994 68.6821 70.4546C68.6821 71.7098 69.6997 72.7273 70.9548 72.7273C72.21 72.7273 73.2276 71.7098 73.2276 70.4546C73.2276 69.1994 72.21 68.1818 70.9548 68.1818Z" fill="#9BDBB3"/>
<path d="M43.6819 68.1818C42.4267 68.1818 41.4092 69.1994 41.4092 70.4546C41.4092 71.7098 42.4267 72.7273 43.6819 72.7273C44.9371 72.7273 45.9546 71.7098 45.9546 70.4546C45.9546 69.1994 44.9371 68.1818 43.6819 68.1818Z" fill="#C3E9D0"/>
<path d="M98.2278 68.1818C96.9726 68.1818 95.9551 69.1994 95.9551 70.4546C95.9551 71.7098 96.9726 72.7273 98.2278 72.7273C99.483 72.7273 100.501 71.7098 100.501 70.4546C100.501 69.1994 99.483 68.1818 98.2278 68.1818Z" fill="#70CD94"/>
<path d="M2.77272 27.2727C1.51753 27.2727 0.5 28.2902 0.5 29.5454C0.5 30.8006 1.51753 31.8181 2.77272 31.8181C4.02792 31.8181 5.04545 30.8006 5.04545 29.5454C5.04545 28.2902 4.02792 27.2727 2.77272 27.2727Z" fill="#9BDBB3"/>
<path d="M57.3176 27.2729C56.0625 27.2729 55.0449 28.2904 55.0449 29.5456C55.0449 30.8008 56.0625 31.8184 57.3176 31.8184C58.5728 31.8184 59.5904 30.8008 59.5904 29.5456C59.5904 28.2904 58.5728 27.2729 57.3176 27.2729Z" fill="#9BDBB3"/>
<path d="M30.0457 27.2729C28.7905 27.2729 27.7729 28.2904 27.7729 29.5456C27.7729 30.8008 28.7905 31.8184 30.0457 31.8184C31.3009 31.8184 32.3184 30.8008 32.3184 29.5456C32.3184 28.2904 31.3009 27.2729 30.0457 27.2729Z" fill="#9BDBB3"/>
<path d="M84.5906 27.2729C83.3354 27.2729 82.3179 28.2904 82.3179 29.5456C82.3179 30.8008 83.3354 31.8184 84.5906 31.8184C85.8458 31.8184 86.8633 30.8008 86.8633 29.5456C86.8633 28.2904 85.8458 27.2729 84.5906 27.2729Z" fill="#70CD94"/>
<path d="M16.409 27.2729C15.1538 27.2729 14.1362 28.2904 14.1362 29.5456C14.1362 30.8008 15.1538 31.8184 16.409 31.8184C17.6641 31.8184 18.6817 30.8008 18.6817 29.5456C18.6817 28.2904 17.6641 27.2729 16.409 27.2729Z" fill="#9BDBB3"/>
<path d="M70.9549 27.2729C69.6997 27.2729 68.6821 28.2904 68.6821 29.5456C68.6821 30.8008 69.6997 31.8184 70.9549 31.8184C72.21 31.8184 73.2276 30.8008 73.2276 29.5456C73.2276 28.2904 72.21 27.2729 70.9549 27.2729Z" fill="#9BDBB3"/>
<path d="M43.6819 27.2729C42.4267 27.2729 41.4092 28.2904 41.4092 29.5456C41.4092 30.8008 42.4267 31.8184 43.6819 31.8184C44.9371 31.8184 45.9546 30.8008 45.9546 29.5456C45.9546 28.2904 44.9371 27.2729 43.6819 27.2729Z" fill="#9BDBB3"/>
<path d="M98.2278 27.2729C96.9726 27.2729 95.9551 28.2904 95.9551 29.5456C95.9551 30.8008 96.9726 31.8184 98.2278 31.8184C99.483 31.8184 100.501 30.8008 100.501 29.5456C100.501 28.2904 99.483 27.2729 98.2278 27.2729Z" fill="#70CD94"/>
<path d="M2.77272 -4.00543e-05C1.51753 -4.00543e-05 0.5 1.01749 0.5 2.27269C0.5 3.52788 1.51753 4.54541 2.77272 4.54541C4.02792 4.54541 5.04545 3.52788 5.04545 2.27269C5.04545 1.01749 4.02792 -4.00543e-05 2.77272 -4.00543e-05Z" fill="#70CD94"/>
<path d="M57.3176 -4.19617e-05C56.0625 -4.19617e-05 55.0449 1.01749 55.0449 2.27269C55.0449 3.52788 56.0625 4.54541 57.3176 4.54541C58.5728 4.54541 59.5904 3.52788 59.5904 2.27269C59.5904 1.01749 58.5728 -4.19617e-05 57.3176 -4.19617e-05Z" fill="#70CD94"/>
<path d="M30.0457 -4.19617e-05C28.7905 -4.19617e-05 27.7729 1.01749 27.7729 2.27268C27.7729 3.52788 28.7905 4.54541 30.0457 4.54541C31.3009 4.54541 32.3184 3.52788 32.3184 2.27268C32.3184 1.01749 31.3009 -4.19617e-05 30.0457 -4.19617e-05Z" fill="#70CD94"/>
<path d="M84.5906 -3.8147e-05C83.3354 -3.8147e-05 82.3179 1.0175 82.3179 2.27269C82.3179 3.52788 83.3354 4.54541 84.5906 4.54541C85.8458 4.54541 86.8633 3.52788 86.8633 2.27269C86.8633 1.0175 85.8458 -3.8147e-05 84.5906 -3.8147e-05Z" fill="#70CD94"/>
<path d="M16.409 -4.00543e-05C15.1538 -4.00543e-05 14.1362 1.01749 14.1362 2.27269C14.1362 3.52788 15.1538 4.54541 16.409 4.54541C17.6641 4.54541 18.6817 3.52788 18.6817 2.27269C18.6817 1.01749 17.6641 -4.00543e-05 16.409 -4.00543e-05Z" fill="#70CD94"/>
<path d="M70.9549 -3.8147e-05C69.6997 -3.8147e-05 68.6821 1.01749 68.6821 2.27268C68.6821 3.52787 69.6997 4.54541 70.9549 4.54541C72.21 4.54541 73.2276 3.52787 73.2276 2.27268C73.2276 1.01749 72.21 -3.8147e-05 70.9549 -3.8147e-05Z" fill="#70CD94"/>
<path d="M43.6819 -4.19617e-05C42.4267 -4.19617e-05 41.4092 1.01749 41.4092 2.27268C41.4092 3.52787 42.4267 4.54541 43.6819 4.54541C44.9371 4.54541 45.9546 3.52787 45.9546 2.27268C45.9546 1.01749 44.9371 -4.19617e-05 43.6819 -4.19617e-05Z" fill="#70CD94"/>
<path d="M98.2278 -3.8147e-05C96.9726 -3.8147e-05 95.9551 1.0175 95.9551 2.27269C95.9551 3.52788 96.9726 4.54541 98.2278 4.54541C99.483 4.54541 100.501 3.52788 100.501 2.27269C100.501 1.0175 99.483 -3.8147e-05 98.2278 -3.8147e-05Z" fill="#70CD94"/>
</g>
</g>
<defs>
<clipPath id="clip0_1330_44437">
<rect width="101" height="100" fill="white"/>
</clipPath>
</defs>
</svg>
